<svg width="139" height="32" viewBox="0 0 139 32" fill="none" xmlns="http://www.w3.org/2000/svg">
<path d="M43.728 9.008H50.04C50.92 9.008 51.752 9.088 52.536 9.248C53.32 9.408 54 9.688 54.576 10.088C55.168 10.472 55.632 11 55.968 11.672C56.32 12.328 56.496 13.16 56.496 14.168C56.496 15.16 56.336 15.992 56.016 16.664C55.696 17.336 55.256 17.872 54.696 18.272C54.136 18.672 53.472 18.96 52.704 19.136C51.936 19.296 51.104 19.376 50.208 19.376H47.472V26H43.728V9.008ZM47.472 16.208H49.968C50.304 16.208 50.624 16.176 50.928 16.112C51.248 16.048 51.528 15.944 51.768 15.8C52.024 15.64 52.224 15.432 52.368 15.176C52.528 14.904 52.608 14.568 52.608 14.168C52.608 13.736 52.504 13.392 52.296 13.136C52.104 12.864 51.848 12.656 51.528 12.512C51.224 12.368 50.88 12.28 50.496 12.248C50.112 12.2 49.744 12.176 49.392 12.176H47.472V16.208ZM57.9572 20.168C57.9572 19.24 58.1252 18.4 58.4612 17.648C58.7972 16.896 59.2532 16.256 59.8292 15.728C60.4212 15.184 61.1092 14.768 61.8932 14.48C62.6932 14.192 63.5412 14.048 64.4372 14.048C65.3332 14.048 66.1732 14.192 66.9572 14.48C67.7572 14.768 68.4452 15.184 69.0212 15.728C69.6132 16.256 70.0772 16.896 70.4132 17.648C70.7492 18.4 70.9172 19.24 70.9172 20.168C70.9172 21.096 70.7492 21.936 70.4132 22.688C70.0772 23.44 69.6132 24.088 69.0212 24.632C68.4452 25.16 67.7572 25.568 66.9572 25.856C66.1732 26.144 65.3332 26.288 64.4372 26.288C63.5412 26.288 62.6932 26.144 61.8932 25.856C61.1092 25.568 60.4212 25.16 59.8292 24.632C59.2532 24.088 58.7972 23.44 58.4612 22.688C58.1252 21.936 57.9572 21.096 57.9572 20.168ZM61.5572 20.168C61.5572 21.048 61.8052 21.76 62.3012 22.304C62.8132 22.848 63.5252 23.12 64.4372 23.12C65.3492 23.12 66.0532 22.848 66.5492 22.304C67.0612 21.76 67.3172 21.048 67.3172 20.168C67.3172 19.288 67.0612 18.576 66.5492 18.032C66.0532 17.488 65.3492 17.216 64.4372 17.216C63.5252 17.216 62.8132 17.488 62.3012 18.032C61.8052 18.576 61.5572 19.288 61.5572 20.168ZM73.0376 14.336H76.4936V15.92H76.5416C76.6536 15.696 76.8136 15.472 77.0216 15.248C77.2296 15.024 77.4776 14.824 77.7656 14.648C78.0536 14.472 78.3816 14.328 78.7496 14.216C79.1176 14.104 79.5176 14.048 79.9496 14.048C80.7656 14.048 81.4856 14.216 82.1096 14.552C82.7496 14.888 83.2296 15.416 83.5496 16.136C83.9656 15.384 84.4696 14.848 85.0616 14.528C85.6536 14.208 86.3816 14.048 87.2456 14.048C88.0296 14.048 88.6856 14.184 89.2136 14.456C89.7576 14.712 90.1816 15.072 90.4856 15.536C90.8056 15.984 91.0296 16.52 91.1576 17.144C91.3016 17.752 91.3736 18.408 91.3736 19.112V26H87.7736V19.208C87.7736 18.664 87.6536 18.2 87.4136 17.816C87.1896 17.416 86.7816 17.216 86.1896 17.216C85.7736 17.216 85.4216 17.288 85.1336 17.432C84.8616 17.56 84.6376 17.744 84.4616 17.984C84.3016 18.224 84.1816 18.504 84.1016 18.824C84.0376 19.144 84.0056 19.48 84.0056 19.832V26H80.4056V19.832C80.4056 19.624 80.3976 19.368 80.3816 19.064C80.3656 18.76 80.3096 18.472 80.2136 18.2C80.1176 17.928 79.9576 17.696 79.7336 17.504C79.5256 17.312 79.2136 17.216 78.7976 17.216C78.3336 17.216 77.9576 17.304 77.6696 17.48C77.3816 17.64 77.1576 17.864 76.9976 18.152C76.8536 18.424 76.7576 18.736 76.7096 19.088C76.6616 19.44 76.6376 19.808 76.6376 20.192V26H73.0376V14.336ZM104.96 23.984C104.384 24.72 103.656 25.288 102.776 25.688C101.896 26.088 100.984 26.288 100.04 26.288C99.1444 26.288 98.2964 26.144 97.4964 25.856C96.7124 25.568 96.0244 25.16 95.4324 24.632C94.8564 24.088 94.4004 23.44 94.0644 22.688C93.7284 21.936 93.5604 21.096 93.5604 20.168C93.5604 19.24 93.7284 18.4 94.0644 17.648C94.4004 16.896 94.8564 16.256 95.4324 15.728C96.0244 15.184 96.7124 14.768 97.4964 14.48C98.2964 14.192 99.1444 14.048 100.04 14.048C100.872 14.048 101.624 14.192 102.296 14.48C102.984 14.768 103.56 15.184 104.024 15.728C104.504 16.256 104.872 16.896 105.128 17.648C105.384 18.4 105.512 19.24 105.512 20.168V21.296H97.1604C97.3044 21.984 97.6164 22.536 98.0964 22.952C98.5764 23.352 99.1684 23.552 99.8724 23.552C100.464 23.552 100.96 23.424 101.36 23.168C101.776 22.896 102.136 22.552 102.44 22.136L104.96 23.984ZM101.912 18.848C101.928 18.24 101.728 17.72 101.312 17.288C100.896 16.856 100.36 16.64 99.7044 16.64C99.3044 16.64 98.9524 16.704 98.6484 16.832C98.3444 16.96 98.0804 17.128 97.8564 17.336C97.6484 17.528 97.4804 17.76 97.3524 18.032C97.2404 18.288 97.1764 18.56 97.1604 18.848H101.912ZM107.75 7.856H111.35V26H107.75V7.856ZM113.504 20.168C113.504 19.24 113.672 18.4 114.008 17.648C114.344 16.896 114.8 16.256 115.376 15.728C115.968 15.184 116.656 14.768 117.44 14.48C118.24 14.192 119.088 14.048 119.984 14.048C120.88 14.048 121.72 14.192 122.504 14.48C123.304 14.768 123.992 15.184 124.568 15.728C125.16 16.256 125.624 16.896 125.96 17.648C126.296 18.4 126.464 19.24 126.464 20.168C126.464 21.096 126.296 21.936 125.96 22.688C125.624 23.44 125.16 24.088 124.568 24.632C123.992 25.16 123.304 25.568 122.504 25.856C121.72 26.144 120.88 26.288 119.984 26.288C119.088 26.288 118.24 26.144 117.44 25.856C116.656 25.568 115.968 25.16 115.376 24.632C114.8 24.088 114.344 23.44 114.008 22.688C113.672 21.936 113.504 21.096 113.504 20.168ZM117.104 20.168C117.104 21.048 117.352 21.76 117.848 22.304C118.36 22.848 119.072 23.12 119.984 23.12C120.896 23.12 121.6 22.848 122.096 22.304C122.608 21.76 122.864 21.048 122.864 20.168C122.864 19.288 122.608 18.576 122.096 18.032C121.6 17.488 120.896 17.216 119.984 17.216C119.072 17.216 118.36 17.488 117.848 18.032C117.352 18.576 117.104 19.288 117.104 20.168Z" fill="black"/>
<path d="M31 16C31.5523 16 32.0033 16.4482 31.9688 16.9994C31.7999 19.698 30.9496 22.3104 29.4977 24.5914C29.2011 25.0574 28.5727 25.1542 28.1263 24.8291L20.6888 19.4139C20.2423 19.0889 20.1552 18.4657 20.3809 17.9616C20.52 17.6508 20.6258 17.326 20.6962 16.9928C20.8104 16.4525 21.2477 16 21.8 16H31Z" fill="#E8516C" fill-opacity="0.9"/>
<path d="M26.6066 26.6066C26.9971 26.9971 26.9991 27.6329 26.5849 27.9983C24.5573 29.7871 22.1088 31.0331 19.4692 31.6194C18.9301 31.7391 18.4173 31.3633 18.3314 30.8177L16.9015 21.7295C16.8156 21.1839 17.1946 20.6817 17.7107 20.4848C18.0289 20.3635 18.3333 20.2085 18.6187 20.0227C19.0816 19.7214 19.7107 19.7107 20.1012 20.1012L26.6066 26.6066Z" fill="#E8516C" fill-opacity="0.9"/>
<path d="M16 31C16 31.5523 15.5518 32.0033 15.0006 31.9688C12.3019 31.7999 9.68958 30.9496 7.40855 29.4977C6.94264 29.2011 6.84577 28.5727 7.17085 28.1263L12.5861 20.6888C12.9111 20.2423 13.5343 20.1552 14.0384 20.3809C14.3492 20.52 14.674 20.6258 15.0072 20.6962C15.5475 20.8104 16 21.2477 16 21.8V31Z" fill="#E8516C" fill-opacity="0.9"/>
<path d="M5.3934 26.6066C5.00287 26.9971 4.36707 26.9991 4.0017 26.5849C2.21287 24.5573 0.966884 22.1089 0.380631 19.4692C0.260888 18.9301 0.636719 18.4173 1.18229 18.3314L10.2705 16.9015C10.8161 16.8156 11.3183 17.1946 11.5152 17.7107C11.6366 18.0289 11.7915 18.3333 11.9773 18.6187C12.2786 19.0816 12.2893 19.7107 11.8988 20.1012L5.3934 26.6066Z" fill="#E8516C" fill-opacity="0.9"/>
<path d="M13.2617 1.25207C13.1608 0.709066 12.6378 0.34749 12.1022 0.482023C8.87169 1.29339 5.96583 3.0957 3.80006 5.64811C1.63429 8.20052 0.329103 11.361 0.0544846 14.6805C0.00895028 15.2309 0.450844 15.6881 1.00302 15.6992L1.40334 15.7072C1.95552 15.7183 2.40831 15.2789 2.45991 14.729C2.71958 11.9622 3.82205 9.3323 5.63037 7.20116C7.43868 5.07002 9.85401 3.55411 12.5416 2.84747C13.0758 2.70703 13.4356 2.18875 13.3347 1.64575L13.2617 1.25207Z" fill="#E8516C" fill-opacity="0.5"/>
<path d="M16 0.999999C16 0.447714 16.4482 -0.00325715 16.9994 0.0312326C19.698 0.200091 22.3104 1.05037 24.5914 2.50231C25.0573 2.79888 25.1542 3.42726 24.8291 3.87373L19.4139 11.3112C19.0889 11.7577 18.4657 11.8448 17.9616 11.6191C17.6508 11.48 17.326 11.3742 16.9928 11.3038C16.4525 11.1896 16 10.7523 16 10.2V0.999999Z" fill="#E8516C" fill-opacity="0.9"/>
<path d="M26.6066 5.3934C26.9971 5.00287 27.6329 5.0009 27.9983 5.41505C29.7871 7.44269 31.0331 9.89115 31.6194 12.5308C31.7391 13.0699 31.3633 13.5827 30.8177 13.6686L21.7295 15.0985C21.1839 15.1844 20.6817 14.8054 20.4848 14.2893C20.3634 13.9711 20.2085 13.6667 20.0227 13.3813C19.7214 12.9184 19.7107 12.2893 20.1012 11.8988L26.6066 5.3934Z" fill="#E8516C" fill-opacity="0.9"/>
</svg>
